<?xml version="1.0" encoding="UTF-8"?><svg id="Ebene_2" xmlns="http://www.w3.org/2000/svg" viewBox="0 0 184.71 120.46"><g id="eut_voll"><g><polygon points="0 120.24 .81 120.46 33.06 .22 32.25 0 0 120.24"/><path d="m90.86,23.49c0-.97.55-1.47,1.38-1.47s1.36.49,1.36,1.47v3.41h.81v-3.5c0-.88.57-1.38,1.38-1.38s1.36.49,1.36,1.47v3.41h.81v-3.54c0-.64-.2-1.16-.59-1.54-.34-.33-.83-.52-1.43-.52-.78,0-1.39.31-1.82.92-.34-.61-.93-.92-1.7-.92-.62,0-1.17.22-1.56.67v-.61h-.81v5.53h.81v-3.41Z"/><path d="m102.54,26.97c.95,0,1.46-.29,2.02-.86l-.55-.48c-.44.44-.81.63-1.45.63-1.06,0-1.63-.7-1.63-1.91h3.73v-.37c0-1.64-.84-2.68-2.27-2.68s-2.27,1.05-2.27,2.83c0,1.96.96,2.83,2.42,2.83Zm-1.44-4.15c.21-.51.71-.83,1.29-.83s1.08.33,1.29.83c.12.3.15.47.17.92h-2.92c.02-.45.04-.62.17-.92Z"/><path d="m107.65,23.49c0-.97.55-1.47,1.38-1.47s1.36.49,1.36,1.47v3.41h.81v-3.5c0-.88.57-1.38,1.38-1.38s1.36.49,1.36,1.47v3.41h.81v-3.54c0-.64-.2-1.16-.6-1.54-.34-.33-.83-.52-1.43-.52-.78,0-1.39.31-1.82.92-.34-.61-.93-.92-1.7-.92-.62,0-1.17.22-1.56.67v-.61h-.81v5.53h.81v-3.41Z"/><path d="m117.99,26.24c.45.59.95.73,1.56.73.56,0,1.06-.19,1.35-.48.56-.56.67-1.48.67-2.35s-.11-1.79-.67-2.35c-.29-.29-.79-.48-1.35-.48-.61,0-1.11.13-1.56.71v-3.11h-.81v8.01h.81v-.66Zm1.39-4.21c1.2,0,1.38,1.03,1.38,2.11s-.18,2.11-1.38,2.11-1.39-1.04-1.39-2.11.19-2.11,1.39-2.11Z"/><path d="m125.98,26.97c.94,0,1.46-.29,2.02-.86l-.55-.48c-.44.44-.81.63-1.45.63-1.06,0-1.63-.7-1.63-1.91h3.73v-.37c0-1.64-.84-2.68-2.27-2.68s-2.27,1.05-2.27,2.83c0,1.96.96,2.83,2.42,2.83Zm-1.44-4.15c.21-.51.71-.83,1.29-.83s1.08.33,1.29.83c.12.3.15.47.17.92h-2.92c.02-.45.04-.62.17-.92Z"/><path d="m131.09,23.5c0-.84.52-1.48,1.33-1.48.43,0,.65.1.96.4l.6-.61c-.39-.39-.8-.52-1.33-.52-.64,0-1.25.28-1.55.74v-.67h-.81v5.53h.81v-3.4Z"/><path d="m139.78,26.97c.67,0,1.2-.25,1.58-.63.56-.57.68-1.35.68-2.21s-.11-1.63-.68-2.2c-.38-.38-.91-.63-1.58-.63s-1.2.25-1.59.63c-.56.57-.67,1.35-.67,2.2s.11,1.63.67,2.21c.38.38.91.63,1.59.63Zm-1-4.54c.26-.26.61-.4,1-.4s.75.15,1.01.4c.41.41.44,1.09.44,1.71s-.03,1.31-.44,1.71c-.26.26-.62.41-1.01.41s-.74-.15-1-.41c-.41-.4-.45-1.09-.45-1.71s.05-1.3.45-1.71Z"/><path d="m144.34,26.9h.81v-4.88h1.18v-.62h-1.18v-1.02c0-.51.22-.81.74-.81h.44v-.7h-.58c-.95,0-1.41.66-1.41,1.48v1.05h-.71v.62h.71v4.88Z"/><path d="m77.02,93.28c.25-.29.37-.66.37-1.09,0-1.21-.77-1.82-2.3-1.82h-1.65v6.28h.99v-2.58h.64l1.49,2.58h1.16l-1.68-2.73c.41-.13.73-.34.98-.64Zm-2.59,0v-2.14h.71c.41,0,.72.08.91.24.2.16.29.43.29.79,0,.38-.1.66-.3.84-.2.18-.5.26-.88.26h-.74Z"/><path d="m149.83,93.28c.24-.29.37-.66.37-1.09,0-1.21-.77-1.82-2.31-1.82h-1.64v6.28h.99v-2.58h.64l1.49,2.58h1.16l-1.68-2.73c.41-.13.73-.34.98-.64Zm-2.59,0v-2.14h.71c.41,0,.72.08.91.24.2.17.3.43.3.79s-.1.66-.3.84c-.2.17-.49.26-.88.26h-.74Z"/><path d="m141.73,101.09c-.72,0-1.28.3-1.67.89-.39.59-.58,1.39-.58,2.38s.19,1.8.58,2.38c.39.58.94.87,1.67.87s1.28-.29,1.67-.88c.39-.59.58-1.38.58-2.38s-.19-1.8-.58-2.39c-.38-.58-.94-.88-1.67-.88Zm.93,5.1c-.19.4-.51.6-.93.6s-.73-.2-.93-.6c-.2-.4-.29-1.01-.29-1.83s.1-1.45.29-1.85c.19-.4.51-.6.93-.6s.74.2.93.6c.2.4.29,1.01.29,1.84s-.1,1.44-.29,1.84Z"/><path d="m81.85,101.09c-.73,0-1.28.3-1.67.89-.39.59-.58,1.39-.58,2.38s.19,1.8.58,2.38c.38.58.94.87,1.67.87s1.28-.29,1.67-.88c.39-.59.58-1.38.58-2.37s-.19-1.8-.58-2.39c-.38-.59-.94-.88-1.67-.88Zm.93,5.1c-.19.4-.5.6-.93.6s-.73-.2-.93-.6-.29-1.01-.29-1.83.1-1.45.29-1.84c.19-.4.5-.6.93-.6s.74.2.93.6c.19.4.29,1.01.29,1.84s-.1,1.44-.29,1.84Z"/><path d="m81.7,96.77c.73,0,1.28-.29,1.67-.88.38-.59.58-1.38.58-2.37s-.19-1.8-.58-2.39c-.39-.59-.94-.88-1.67-.88s-1.28.3-1.67.89-.58,1.39-.58,2.38.19,1.8.58,2.38c.39.58.94.87,1.67.87Zm-.93-5.09c.19-.4.5-.6.93-.6s.74.2.93.6c.2.4.29,1.01.29,1.84s-.1,1.44-.29,1.84c-.19.4-.5.6-.93.6s-.73-.2-.93-.6c-.2-.4-.3-1.01-.3-1.83s.1-1.45.29-1.85Z"/><path d="m148.25,104.8h1v1.73c-.29.18-.61.26-.98.26-.48,0-.83-.19-1.07-.58-.23-.38-.35-1.01-.35-1.87s.15-1.45.44-1.84c.29-.39.67-.59,1.13-.59.23,0,.44.04.62.12.19.08.37.21.55.39l.56-.61c-.25-.25-.5-.43-.78-.55-.27-.12-.6-.18-.98-.18-.47,0-.91.13-1.3.37-.39.25-.7.62-.93,1.11-.23.49-.35,1.08-.35,1.77,0,1.06.21,1.88.63,2.43.42.56,1.01.83,1.78.83.39,0,.74-.05,1.06-.15.32-.1.63-.24.93-.42v-3.05h-2.07l.1.81Z"/><path d="m69.9,94.39c0,.52-.08.91-.25,1.16-.17.25-.44.38-.8.38s-.62-.12-.79-.38c-.17-.25-.25-.64-.25-1.16v-4.02h-.99v4.22c0,.66.18,1.19.54,1.58.35.39.86.59,1.5.59.43,0,.8-.09,1.11-.28.31-.18.54-.44.71-.77.16-.33.24-.7.24-1.13v-4.22h-1v4.02Z"/><polygon points="164.38 91.23 166.16 91.23 166.16 96.65 167.15 96.65 167.15 91.23 168.86 91.23 168.96 90.37 164.38 90.37 164.38 91.23"/><polygon points="173.11 93.35 171.71 90.37 170.61 90.37 172.59 94.26 172.59 96.65 173.59 96.65 173.59 94.25 175.56 90.37 174.52 90.37 173.11 93.35"/><polygon points="61.82 93.85 63.96 93.85 63.96 93.06 61.82 93.06 61.82 91.17 64.27 91.17 64.38 90.37 60.82 90.37 60.82 96.65 64.43 96.65 64.43 95.85 61.82 95.85 61.82 93.85"/><polygon points="154.33 104.19 152.93 101.22 151.84 101.22 153.81 105.1 153.81 107.49 154.81 107.49 154.81 105.09 156.79 101.22 155.74 101.22 154.33 104.19"/><polygon points="158.81 91.17 160.09 91.17 160.09 95.84 158.81 95.84 158.81 96.65 162.37 96.65 162.37 95.84 161.09 95.84 161.09 91.17 162.37 91.17 162.37 90.37 158.81 90.37 158.81 91.17"/><path d="m108.91,90.37h-.88v2.86c0,.49.01.91.04,1.27.03.36.06.76.1,1.21l-1.89-5.34h-1.29v6.27h.88v-2.85c0-.67-.05-1.5-.14-2.49l1.89,5.34h1.29v-6.27Z"/><polygon points="86.44 107.49 87.43 107.49 87.43 104.82 89.66 104.82 89.66 104.02 87.43 104.02 87.43 102.02 89.97 102.02 90.07 101.22 86.44 101.22 86.44 107.49"/><polygon points="143.5 91.17 143.62 90.37 140.06 90.37 140.06 96.65 143.67 96.65 143.67 95.85 141.05 95.85 141.05 93.85 143.19 93.85 143.19 93.06 141.05 93.06 141.05 91.17 143.5 91.17"/><polygon points="130.94 91.17 130.94 90.37 127.38 90.37 127.38 91.17 128.66 91.17 128.66 95.84 127.38 95.84 127.38 96.65 130.94 96.65 130.94 95.84 129.66 95.84 129.66 91.17 130.94 91.17"/><path d="m129.6,101.09c-.72,0-1.28.3-1.67.89-.39.59-.58,1.39-.58,2.38s.19,1.8.58,2.38c.38.58.94.87,1.67.87s1.28-.29,1.67-.88c.39-.59.58-1.38.58-2.38s-.19-1.8-.58-2.39c-.39-.58-.94-.88-1.67-.88Zm.93,5.1c-.19.4-.51.6-.93.6s-.73-.2-.93-.6c-.2-.4-.29-1.01-.29-1.83s.1-1.45.29-1.85c.19-.4.51-.6.93-.6s.74.2.93.6c.19.4.29,1.01.29,1.84s-.1,1.44-.29,1.84Z"/><polygon points="117.71 103.77 115.77 103.77 115.77 101.22 114.78 101.22 114.78 107.49 115.77 107.49 115.77 104.64 117.71 104.64 117.71 107.49 118.7 107.49 118.7 101.22 117.71 101.22 117.71 103.77"/><path d="m111.43,106.61c-.2.09-.45.14-.73.14-.5,0-.89-.2-1.19-.59-.3-.39-.45-1-.45-1.82s.15-1.45.45-1.84c.3-.39.69-.59,1.17-.59s.87.15,1.23.46l.51-.65c-.25-.22-.51-.38-.79-.48-.27-.1-.6-.15-.99-.15-.49,0-.93.13-1.33.38-.4.26-.72.63-.95,1.12-.23.49-.35,1.08-.35,1.76s.11,1.28.34,1.77c.23.49.54.86.94,1.11.4.25.85.38,1.36.38.75,0,1.37-.25,1.85-.74l-.48-.65c-.2.17-.4.3-.6.4Z"/><path d="m122.01,93.8c0-.67-.05-1.5-.14-2.49l1.88,5.34h1.29v-6.27h-.88v2.86c0,.49.01.91.04,1.27.03.36.06.76.1,1.21l-1.89-5.34h-1.29v6.27h.88v-2.85Z"/><path d="m117.71,94.39c0,.52-.08.91-.25,1.16-.17.25-.44.38-.8.38s-.62-.12-.79-.38c-.17-.25-.25-.64-.25-1.16v-4.02h-.99v4.22c0,.66.18,1.19.53,1.58.36.39.86.59,1.5.59.43,0,.8-.09,1.11-.28.31-.18.54-.44.71-.77.16-.33.25-.7.25-1.13v-4.22h-1v4.02Z"/><path d="m154.39,95.94c-.64,0-1.18-.22-1.63-.65l-.55.64c.54.56,1.26.84,2.18.84.47,0,.87-.08,1.21-.24.34-.16.6-.38.78-.66.18-.29.27-.62.27-.99,0-.55-.15-.96-.45-1.24-.3-.29-.73-.52-1.3-.7-.36-.11-.64-.22-.84-.31-.2-.09-.34-.2-.42-.31-.08-.11-.12-.26-.12-.42,0-.26.1-.46.29-.6.2-.14.46-.21.78-.21.53,0,.99.19,1.4.56l.52-.63c-.53-.5-1.19-.76-1.98-.76-.39,0-.74.07-1.05.22-.31.14-.55.34-.72.6-.18.26-.26.55-.26.89,0,.47.15.84.46,1.13.31.28.79.53,1.45.74.32.1.57.2.74.3.17.1.29.22.36.34.07.13.11.29.11.47,0,.32-.12.57-.35.75-.23.18-.52.26-.88.26Z"/><polygon points="95.83 102.07 97.62 102.07 97.62 107.49 98.61 107.49 98.61 102.07 100.32 102.07 100.42 101.22 95.83 101.22 95.83 102.07"/><polygon points="135.31 101.22 134.32 101.22 134.32 107.49 137.85 107.49 137.96 106.61 135.31 106.61 135.31 101.22"/><path d="m124.29,104.07c0,.48.01.91.04,1.27.03.36.06.77.1,1.21l-1.89-5.34h-1.29v6.27h.88v-2.85c0-.67-.05-1.5-.14-2.49l1.88,5.34h1.29v-6.27h-.88v2.85Z"/><polygon points="95.94 91.17 96.05 90.37 92.49 90.37 92.49 96.65 96.1 96.65 96.1 95.85 93.49 95.85 93.49 93.85 95.63 93.85 95.63 93.06 93.49 93.06 93.49 91.17 95.94 91.17"/><polygon points="135.61 95.65 134.21 90.37 133.15 90.37 135.02 96.65 136.15 96.65 138.03 90.37 137.02 90.37 135.61 95.65"/><polygon points="103.47 104.7 105.61 104.7 105.61 103.91 103.47 103.91 103.47 102.02 105.92 102.02 106.03 101.22 102.47 101.22 102.47 107.49 106.08 107.49 106.08 106.69 103.47 106.69 103.47 104.7"/><path d="m101.14,90.37h-1.23l-1.88,6.27h1.02l.41-1.51h2.11l.41,1.51h1.05l-1.89-6.27Zm-1.48,3.95l.85-3.13.85,3.13h-1.7Z"/><path d="m88.02,90.37h-1.64v6.27h.99v-2.24h.72c.71,0,1.28-.17,1.69-.5.41-.34.62-.86.62-1.56,0-.66-.21-1.15-.62-1.48-.41-.33-1-.5-1.76-.5Zm1.01,2.95c-.22.2-.53.29-.93.29h-.73v-2.45h.72c.85,0,1.27.4,1.27,1.18,0,.45-.11.78-.33.97Z"/><polygon points="177.18 62.21 177.18 54.57 172.24 54.57 172.24 62.21 164.72 62.21 164.72 67.23 172.24 67.23 172.24 74.86 177.18 74.86 177.18 67.23 184.71 67.23 184.71 62.21 177.18 62.21"/><rect x="148.56" y="54.57" width="4.94" height="28.05"/><path d="m137.34,82.62v-33.57h27.38v-5.01h-32.28l-.03,33.57h-8.83c-5.12,0-8.83-3.36-8.83-7.98v-25.59h-4.94v16.22c-.07,9.73-7.44,17.35-16.77,17.35-7.74,0-13.53-3.87-15.6-10.38h11.67c8.85,0,13.47-6.3,13.47-12.52,0-5.89-4.5-11.85-13.1-11.85-9.65,0-17.79,8.67-17.79,18.92,0,.14,0,.29,0,.43h-19.99v5.01h20.62c2.24,9.37,10.33,15.39,20.72,15.39,6.93,0,13.37-3.32,17.41-8.93,1.76,5.38,6.9,8.93,13.13,8.93h13.77Zm-60.73-20.41c0-.14,0-.29,0-.43,0-7.41,6.01-13.91,12.86-13.91,6.46,0,8.16,4.48,8.16,6.84,0,5.16-4.42,7.5-8.54,7.5h-12.48Z"/></g></g></svg>